<svg width="72" height="36" viewBox="0 0 72 36" fill="none" xmlns="http://www.w3.org/2000/svg">
<path d="M13.0832 11.2911C12.5455 11.6495 12.1871 12.008 11.4702 12.3664C9.67802 13.2625 7.88576 13.8002 6.27276 14.8755C3.04677 17.0262 3.04673 19.7145 6.45194 21.5067C9.85715 23.2989 13.4416 24.5535 17.2052 25.2704C21.865 26.1665 26.5248 26.5249 31.3638 27.0626C33.3352 27.2418 35.3067 27.0626 37.4574 27.0626C37.4574 25.6288 37.6366 24.195 37.6366 22.4028C39.7872 24.9119 41.5794 27.0626 43.5509 29.2132C41.9379 30.8262 39.9664 32.7977 37.6366 35.3068C37.6366 33.5146 37.4574 32.26 37.4574 31.0055C32.26 30.647 27.0625 30.2886 22.0443 29.7509C16.1299 29.034 10.3948 27.9587 5.01819 25.0911C2.6883 23.8366 0 22.4028 0 19.356C0 16.1301 2.6883 14.6963 5.01819 13.4417C7.34807 12.1872 9.85724 11.4703 12.3663 10.395C12.7248 10.7534 12.9039 11.1118 13.0832 11.2911Z" fill="#FF0000"/>
<path d="M46.9558 30.1093C46.5973 26.5248 46.5973 26.704 49.4648 26.1664C54.1246 25.091 58.7844 23.8365 63.2649 22.4027C65.2364 21.8651 67.2078 20.4313 67.2078 18.1014C67.2078 15.7715 65.0572 14.8754 63.4442 13.9793C62.1896 13.2624 60.935 12.904 59.6805 12.3663C59.1428 12.1871 58.7844 11.6494 58.6052 10.9325C62.9065 11.8286 66.8493 12.904 70.0753 16.13C72.0468 18.1014 72.0468 20.4313 70.0753 22.4027C69 23.478 67.7455 24.3742 66.3117 25.091C60.3974 28.1378 53.7662 29.2131 46.9558 30.1093Z" fill="#FF0000"/>
<path d="M59.1434 3.05176e-05C57.3512 3.05176e-05 55.9175 1.4338 55.9175 3.22602C55.9175 5.01824 57.3512 6.45201 59.1434 6.45201C60.9357 6.45201 62.3694 5.01824 62.3694 3.22602C62.3694 1.4338 60.9357 3.05176e-05 59.1434 3.05176e-05ZM59.1434 4.48057C58.4266 4.48057 57.7097 3.94291 57.7097 3.0468C57.7097 2.32991 58.2473 1.61303 59.1434 1.61303C59.8603 1.61303 60.5772 2.15069 60.5772 3.0468C60.5772 3.94291 59.8603 4.48057 59.1434 4.48057Z" fill="#FF0000"/>
<path d="M27.0624 13.6207C27.0624 16.6675 24.7325 18.9974 21.5065 18.9974C18.4598 18.9974 16.1299 16.8467 16.1299 13.7999H18.8182C18.9974 15.4129 20.0727 16.4883 21.6857 16.4883C23.2987 16.4883 24.5533 15.2337 24.5533 13.4415C24.5533 11.6493 23.2988 10.5739 21.3274 10.5739H19.3559V10.0363L22.7611 4.83886H16.6675V2.50897H26.704V3.04664L23.1196 8.60251C25.2702 9.14018 27.0624 11.1116 27.0624 13.6207Z" fill="#FF0000"/>
<path d="M41.2207 13.4415C41.2207 16.6675 38.7116 19.1766 35.3064 19.1766C31.722 19.1766 29.3921 16.8467 29.3921 13.4415C29.3921 12.0077 29.9298 10.2155 31.1843 8.06484L34.4103 2.32974H37.2778C35.3063 5.73496 34.5895 7.16873 33.8726 8.42328C34.5895 8.24406 35.1271 8.06484 35.844 8.06484C38.7116 8.06484 41.2207 10.2155 41.2207 13.4415ZM38.5324 13.4415C38.5324 11.4701 37.0986 10.2155 35.3064 10.2155C33.3349 10.2155 32.0804 11.4701 32.0804 13.4415C32.0804 15.2337 33.5142 16.6675 35.3064 16.6675C37.0986 16.6675 38.5324 15.2337 38.5324 13.4415Z" fill="#FF0000"/>
<path d="M43.0132 10.574C43.0132 5.37659 45.5222 2.1506 49.4651 2.1506C53.408 2.1506 55.9172 5.37659 55.9172 10.574C55.9172 15.7715 53.408 18.9974 49.4651 18.9974C45.5222 18.9974 43.0132 15.7715 43.0132 10.574ZM53.2288 10.574C53.2288 6.81037 51.795 4.65971 49.4651 4.65971C47.1352 4.65971 45.7015 6.81037 45.7015 10.574C45.7015 14.3377 47.1352 16.4883 49.4651 16.4883C51.795 16.6676 53.2288 14.3377 53.2288 10.574Z" fill="#FF0000"/>
</svg>
