<svg width="59" height="72" viewBox="0 0 59 72" fill="none" xmlns="http://www.w3.org/2000/svg">
<path d="M23.6573 49.1067C22.9404 49.2859 22.4028 49.4651 21.8651 49.8235C21.1482 48.7482 20.6106 47.4937 19.8937 46.5976C18.6391 44.8053 17.2054 43.1923 15.9508 41.4001C13.9794 38.7118 12.3664 36.0235 11.6495 32.6183C10.0365 24.1948 14.6962 15.9506 22.7612 12.7246C33.3353 8.42332 45.5224 15.5922 47.1354 26.8832C47.8523 32.0806 46.2393 36.3819 43.3717 40.504C42.1172 42.2962 40.5042 44.0885 39.2496 46.0599C38.3535 47.3144 37.8159 48.569 36.9198 49.8235C36.5613 50.3612 36.2029 50.8989 35.6652 51.0781C31.5431 52.6911 27.421 54.1249 23.2989 55.5586C22.7612 55.7379 22.4028 55.5586 22.2236 55.2002C22.0443 54.6625 22.0444 54.1249 22.582 53.9457C22.9405 53.7664 23.2989 53.5872 23.6573 53.5872C27.2417 52.3327 30.8262 51.0781 34.4106 49.6443C34.7691 49.4651 35.1275 49.1067 35.3067 48.7482C36.7405 46.0599 38.5328 43.9092 40.325 41.4001C42.1172 39.0702 43.7302 36.9196 44.447 34.052C46.2393 28.3169 44.9847 23.2987 41.0418 18.9974C36.5613 13.9792 30.8262 12.3662 24.3742 14.3376C17.9223 16.3091 14.3378 20.7896 13.0832 27.4208C12.1871 32.0806 13.8001 36.0235 16.4884 39.6079C18.1014 41.7586 19.7145 43.9092 21.3275 46.0599C22.4028 46.7768 22.9404 47.8521 23.6573 49.1067Z" fill="#0132E0"/>
<path d="M22.7613 66.8497C22.5821 66.6705 22.2236 66.4912 22.2236 66.1328C22.2236 65.7744 22.4029 65.4159 22.5821 65.0575C22.5821 64.8782 22.9405 64.8782 23.1197 64.8782C27.0626 63.4445 31.1847 62.0107 35.1276 60.5769C36.0237 60.2185 36.3821 60.3977 36.5614 60.9354C36.7406 61.473 36.3821 62.0107 35.6653 62.3691C31.5432 63.8029 27.6003 65.2367 23.4782 66.8497C23.299 66.6705 23.1197 66.6705 22.7613 66.8497Z" fill="#0132E0"/>
<path d="M22.7613 60.9355C22.5821 60.7562 22.2236 60.577 22.2236 60.2186C22.2236 59.8601 22.4029 59.5017 22.5821 59.1433C22.5821 58.964 22.9405 58.964 23.1197 58.964C27.0626 57.5303 31.1847 56.0965 35.1276 54.6627C36.0237 54.3043 36.3821 54.4835 36.5614 55.0212C36.7406 55.5588 36.5614 56.0965 35.6653 56.4549C31.5432 57.8887 27.6003 59.5017 23.4782 60.9355C23.299 60.9355 23.1197 60.9355 22.7613 60.9355Z" fill="#0132E0"/>
<path d="M35.6652 65.9537C34.4106 70.255 27.421 72.7641 23.1196 70.4342C27.2417 69.0005 31.3638 67.3875 35.6652 65.9537Z" fill="#0132E0"/>
<path d="M30.2886 3.22602C30.2886 3.94291 30.2886 4.6598 30.2886 5.37668C30.2886 5.91435 29.9301 6.27279 29.3924 6.27279C28.8548 6.27279 28.4963 5.91435 28.4963 5.37668C28.4963 3.94291 28.4963 2.50914 28.4963 0.896139C28.4963 0.358474 28.8548 3.05176e-05 29.3924 3.05176e-05C29.9301 3.05176e-05 30.2886 0.358474 30.2886 0.896139C30.2886 1.61303 30.2886 2.50914 30.2886 3.22602Z" fill="#0132E0"/>
<path d="M3.22597 28.3171C3.94286 28.3171 4.65977 28.3171 5.37665 28.3171C6.09354 28.3171 6.45199 28.6755 6.45199 29.2132C6.45199 29.7509 6.09354 30.1093 5.37665 30.1093C3.94288 30.1093 2.50912 30.1093 1.07534 30.1093C0.358454 30.1093 0 29.7509 0 29.2132C0 28.6755 0.358454 28.3171 1.07534 28.3171C1.79223 28.3171 2.50908 28.3171 3.22597 28.3171Z" fill="#0132E0"/>
<path d="M55.5588 30.2886C54.8419 30.2886 54.125 30.2886 53.4081 30.2886C52.8704 30.2886 52.512 29.9301 52.512 29.3924C52.512 28.8548 52.8704 28.4963 53.4081 28.4963C54.8418 28.4963 56.4548 28.4963 57.8886 28.4963C58.4263 28.4963 58.7847 28.8548 58.7847 29.3924C58.7847 29.9301 58.4263 30.2886 57.8886 30.2886C56.9925 30.2886 56.2756 30.2886 55.5588 30.2886Z" fill="#0132E0"/>
<path d="M8.96131 7.8858C9.31975 8.06502 9.49896 8.24425 9.67819 8.42347C10.7535 9.4988 11.6496 10.3949 12.725 11.4702C13.2626 12.0079 13.2626 12.3663 12.725 12.904C12.3665 13.2625 11.8288 13.2625 11.2912 12.904C10.2158 11.8287 9.14054 10.9326 8.24443 9.85724C8.06521 9.67802 7.88598 9.14036 8.0652 8.78191C8.24442 8.24425 8.78209 8.06502 8.96131 7.8858Z" fill="#0132E0"/>
<path d="M46.4186 45.3432C46.777 45.5224 46.9562 45.7016 47.1354 45.8809C48.2108 46.777 49.1069 47.8523 50.1822 48.7484C50.7199 49.2861 50.7199 49.8237 50.3615 50.1822C50.003 50.5406 49.4653 50.5406 48.9276 50.003C47.8523 48.9276 46.9562 48.0315 45.8809 46.9562C45.7017 46.777 45.5225 46.2393 45.7017 45.8809C45.7017 45.7016 46.0601 45.5224 46.4186 45.3432Z" fill="#0132E0"/>
<path d="M50.7199 8.96116C50.5407 9.3196 50.3615 9.49882 50.1822 9.67805C49.1069 10.7534 48.2108 11.6495 47.1354 12.7248C46.777 13.0833 46.2394 13.2625 45.7017 12.7248C45.3433 12.3664 45.3433 11.8287 45.7017 11.291C46.777 10.2157 47.6731 9.14038 48.7484 8.24427C48.9277 8.06505 49.4653 7.88583 49.8238 8.06505C50.1822 8.24427 50.3614 8.78194 50.7199 8.96116Z" fill="#0132E0"/>
<path d="M8.96108 50.5406C8.78186 50.3613 8.42343 50.1821 8.2442 49.8237C8.06498 49.6444 8.2442 49.1068 8.2442 48.9276C9.31954 47.8522 10.3949 46.5977 11.6494 45.5223C12.0079 45.1639 12.5455 45.1639 12.9039 45.5223C13.2624 45.8808 13.2624 46.4185 12.9039 46.7769C11.8286 47.8522 10.7533 48.9276 9.67796 50.0029C9.49874 50.3613 9.31952 50.5406 8.96108 50.5406Z" fill="#0132E0"/>
</svg>
