<svg width="26" height="20" viewBox="0 0 26 20" fill="none" xmlns="http://www.w3.org/2000/svg">
<g clip-path="url(#clip0_633_12937)">
<path d="M13.1328 3.32812L9.35156 6.39063C8.72266 6.89844 8.60156 7.8125 9.07812 8.46484C9.58203 9.16016 10.5625 9.29688 11.2383 8.76953L15.1172 5.75391C15.3906 5.54297 15.7812 5.58984 15.9961 5.86328C16.2109 6.13672 16.1602 6.52734 15.8867 6.74219L15.0703 7.375L20.5 12.375V5H20.4727L20.3203 4.90234L17.4844 3.08594C16.8867 2.70312 16.1875 2.5 15.4766 2.5C14.625 2.5 13.7969 2.79297 13.1328 3.32812ZM14.0234 8.1875L12.0039 9.75781C10.7734 10.7188 8.98828 10.4688 8.06641 9.20312C7.19922 8.01172 7.41797 6.34766 8.5625 5.42188L11.8125 2.79297C11.3594 2.60156 10.8711 2.50391 10.375 2.50391C9.64062 2.5 8.92578 2.71875 8.3125 3.125L5.5 5V13.75H6.60156L10.1719 17.0078C10.9375 17.707 12.1211 17.6523 12.8203 16.8867C13.0352 16.6484 13.1797 16.3711 13.2539 16.082L13.918 16.6914C14.6797 17.3906 15.8672 17.3398 16.5664 16.5781C16.7422 16.3867 16.8711 16.1641 16.9531 15.9336C17.7109 16.4414 18.7422 16.3359 19.3789 15.6406C20.0781 14.8789 20.0273 13.6914 19.2656 12.9922L14.0234 8.1875ZM1.125 5C0.78125 5 0.5 5.28125 0.5 5.625V13.75C0.5 14.4414 1.05859 15 1.75 15H3C3.69141 15 4.25 14.4414 4.25 13.75V5H1.125ZM2.375 12.5C2.54076 12.5 2.69973 12.5658 2.81694 12.6831C2.93415 12.8003 3 12.9592 3 13.125C3 13.2908 2.93415 13.4497 2.81694 13.5669C2.69973 13.6842 2.54076 13.75 2.375 13.75C2.20924 13.75 2.05027 13.6842 1.93306 13.5669C1.81585 13.4497 1.75 13.2908 1.75 13.125C1.75 12.9592 1.81585 12.8003 1.93306 12.6831C2.05027 12.5658 2.20924 12.5 2.375 12.5ZM21.75 5V13.75C21.75 14.4414 22.3086 15 23 15H24.25C24.9414 15 25.5 14.4414 25.5 13.75V5.625C25.5 5.28125 25.2188 5 24.875 5H21.75ZM23 13.125C23 12.9592 23.0658 12.8003 23.1831 12.6831C23.3003 12.5658 23.4592 12.5 23.625 12.5C23.7908 12.5 23.9497 12.5658 24.0669 12.6831C24.1842 12.8003 24.25 12.9592 24.25 13.125C24.25 13.2908 24.1842 13.4497 24.0669 13.5669C23.9497 13.6842 23.7908 13.75 23.625 13.75C23.4592 13.75 23.3003 13.6842 23.1831 13.5669C23.0658 13.4497 23 13.2908 23 13.125Z" fill="#3B82F6"/>
</g>
<defs>
<clipPath id="clip0_633_12937">
<path d="M0.5 0H25.5V20H0.5V0Z" fill="white"/>
</clipPath>
</defs>
</svg>
