<svg width="24" height="20" viewBox="0 0 24 20" fill="none" xmlns="http://www.w3.org/2000/svg">
<g clip-path="url(#clip0_633_12929)">
<path d="M12.9375 0.9375V1.34766C13.1875 1.39453 13.4297 1.45312 13.6484 1.51172C14.1484 1.64453 14.4453 2.16016 14.3125 2.66016C14.1797 3.16016 13.6641 3.45703 13.1641 3.32422C12.7383 3.21094 12.3398 3.13281 11.9844 3.12891C11.6992 3.125 11.4102 3.19531 11.2266 3.30078C11.1445 3.35156 11.1055 3.39453 11.0898 3.41797C11.0781 3.4375 11.0625 3.46484 11.0625 3.52734C11.0625 3.53906 11.0625 3.54688 11.0625 3.55078C11.0703 3.55859 11.0977 3.59766 11.1914 3.65234C11.418 3.78906 11.7539 3.89453 12.2617 4.04688L12.2969 4.05859C12.7305 4.1875 13.3086 4.36328 13.7773 4.65625C14.3125 4.99219 14.7969 5.55078 14.8086 6.41016C14.8203 7.28906 14.3633 7.92969 13.7656 8.30469C13.5039 8.46484 13.2227 8.57812 12.9336 8.64844V9.0625C12.9336 9.58203 12.5156 10 11.9961 10C11.4766 10 11.0586 9.58203 11.0586 9.0625V8.61719C10.6875 8.52734 10.3477 8.41016 10.0586 8.3125C9.97656 8.28516 9.89844 8.25781 9.82422 8.23438C9.33203 8.07031 9.06641 7.53906 9.23047 7.04688C9.39453 6.55469 9.92578 6.28906 10.418 6.45312C10.5195 6.48828 10.6133 6.51953 10.7031 6.55078C11.2344 6.73047 11.6172 6.85938 12.0273 6.875C12.3398 6.88672 12.6172 6.8125 12.7773 6.71484C12.8516 6.66797 12.8867 6.62891 12.9023 6.60156C12.918 6.57812 12.9375 6.53125 12.9336 6.44141V6.43359C12.9336 6.39453 12.9336 6.35156 12.7773 6.25391C12.5547 6.11328 12.2188 6.00391 11.7188 5.85156L11.6445 5.82812C11.2227 5.70312 10.668 5.53516 10.2227 5.26562C9.69531 4.94922 9.1875 4.40625 9.18359 3.54297C9.17969 2.64844 9.6875 2.03516 10.2656 1.69141C10.5156 1.54297 10.7852 1.44141 11.0547 1.37109V0.9375C11.0547 0.417969 11.4727 0 11.9922 0C12.5117 0 12.9297 0.417969 12.9297 0.9375H12.9375ZM22.9453 13.1367C23.457 13.832 23.3086 14.8086 22.6133 15.3203L17.668 18.9648C16.7539 19.6367 15.6523 20 14.5156 20H8.25H2C1.30859 20 0.75 19.4414 0.75 18.75V16.25C0.75 15.5586 1.30859 15 2 15H3.4375L5.19141 13.5938C6.07812 12.8828 7.17969 12.5 8.31641 12.5H11.375H12H14.5C15.1914 12.5 15.75 13.0586 15.75 13.75C15.75 14.4414 15.1914 15 14.5 15H12H11.375C11.0312 15 10.75 15.2812 10.75 15.625C10.75 15.9688 11.0312 16.25 11.375 16.25H16.0859L20.7617 12.8047C21.457 12.293 22.4336 12.4414 22.9453 13.1367ZM8.3125 15H8.27734C8.28906 15 8.30078 15 8.3125 15Z" fill="#3B82F6"/>
</g>
<defs>
<clipPath id="clip0_633_12929">
<path d="M0.75 0H23.25V20H0.75V0Z" fill="white"/>
</clipPath>
</defs>
</svg>
