<svg width="30" height="30" viewBox="0 0 30 30" fill="none" xmlns="http://www.w3.org/2000/svg">
<g clip-path="url(#clip0_581_3139)">
<path d="M30 30H0V0H30V30Z" stroke="#E5E7EB"/>
<path d="M10.7812 2.8125H19.2188C19.4766 2.8125 19.6875 3.02344 19.6875 3.28125V5.625H10.3125V3.28125C10.3125 3.02344 10.5234 2.8125 10.7812 2.8125ZM7.5 3.28125V5.625H3.75C1.68164 5.625 0 7.30664 0 9.375V15H11.25H18.75H30V9.375C30 7.30664 28.3184 5.625 26.25 5.625H22.5V3.28125C22.5 1.4707 21.0293 0 19.2188 0H10.7812C8.9707 0 7.5 1.4707 7.5 3.28125ZM30 16.875H18.75V18.75C18.75 19.7871 17.9121 20.625 16.875 20.625H13.125C12.0879 20.625 11.25 19.7871 11.25 18.75V16.875H0V24.375C0 26.4434 1.68164 28.125 3.75 28.125H26.25C28.3184 28.125 30 26.4434 30 24.375V16.875Z" fill="#3B82F6"/>
</g>
<defs>
<clipPath id="clip0_581_3139">
<rect width="30" height="30" fill="white"/>
</clipPath>
</defs>
</svg>
