<svg width="61" height="48" viewBox="0 0 61 48" fill="none" xmlns="http://www.w3.org/2000/svg">
<g clip-path="url(#clip0_575_896)">
<g clip-path="url(#clip1_575_896)">
<path d="M60.6562 29.8032C60.6562 38.3626 56.9625 43.7251 50.3156 43.7251C44.4469 43.7251 41.3344 40.4813 35.6062 30.9188L32.6625 25.9876C31.8844 24.8157 31.3031 23.7188 30.675 22.7063C28.7906 25.8751 26.2594 30.4876 26.2594 30.4876C19.9781 41.4188 16.4531 43.7251 11.55 43.7251C4.72687 43.7251 0.65625 38.3532 0.65625 30.047C0.65625 16.6407 8.13562 3.9751 17.8969 3.9751C22.6031 3.9751 26.6906 6.28885 31.4719 12.3657C34.95 7.66885 38.7937 3.9751 43.7156 3.9751C53.0062 3.9751 60.6562 15.7595 60.6562 29.8032ZM27.6 18.0188C23.5781 12.197 20.9531 10.472 17.8125 10.472C12.0094 10.472 7.14563 20.4188 7.14563 30.1595C7.14563 34.7063 8.87813 37.2563 11.7938 37.2563C14.625 37.2563 16.3875 35.4751 21.4688 27.5251C21.4688 27.5251 23.7844 23.8595 27.6 18.0188ZM50.4563 37.2563C53.475 37.2563 54.8531 34.6782 54.8531 30.2345C54.8531 18.5907 49.7625 9.10135 43.3031 9.10135C40.1906 9.10135 37.575 11.5313 34.4062 16.4157C35.2875 17.7095 36.1969 19.1345 37.1531 20.672L40.6687 26.522C46.1719 35.3438 47.5594 37.2563 50.4563 37.2563Z" fill="#2563EB"/>
</g>
</g>
<defs>
<clipPath id="clip0_575_896">
<rect width="60" height="48" fill="white" transform="translate(0.65625)"/>
</clipPath>
<clipPath id="clip1_575_896">
<path d="M0.65625 0H60.6562V48H0.65625V0Z" fill="white"/>
</clipPath>
</defs>
</svg>
