<svg width="52" height="61" viewBox="0 0 52 61" fill="none" xmlns="http://www.w3.org/2000/svg">
<path d="M43.1571 32.2115C43.1301 27.2656 45.378 23.5326 49.928 20.7834C47.3821 17.1582 43.5363 15.1637 38.4582 14.7729C33.6509 14.3955 28.3967 17.5625 26.4738 17.5625C24.4425 17.5625 19.7842 14.9076 16.128 14.9076C8.57171 15.0289 0.541504 20.9047 0.541504 32.8584C0.541504 36.3893 1.1915 40.0369 2.4915 43.8014C4.22484 48.7473 10.4811 60.8762 17.0082 60.674C20.4207 60.5932 22.8311 58.2617 27.2728 58.2617C31.579 58.2617 33.8134 60.674 37.6186 60.674C44.1998 60.5797 49.8603 49.5559 51.5123 44.5965C42.6832 40.4592 43.1571 32.4676 43.1571 32.2115ZM35.4925 10.083C39.1894 5.7166 38.8509 1.74102 38.7425 0.3125C35.479 0.501172 31.7009 2.52266 29.5478 5.01582C27.178 7.68418 25.7832 10.9859 26.0811 14.7055C29.6155 14.975 32.8384 13.1691 35.4925 10.083Z" fill="#1F2937"/>
</svg>
