<svg width="30" height="30" viewBox="0 0 30 30" fill="none" xmlns="http://www.w3.org/2000/svg">
<g clip-path="url(#clip0_591_6513)">
<path d="M14.2617 0.152344L1.13667 5.77734C0.316353 6.12891 -0.140678 7.00781 0.0409622 7.875C0.222603 8.74219 0.984322 9.375 1.87495 9.375V9.84375C1.87495 10.623 2.5019 11.25 3.2812 11.25H26.7187C27.498 11.25 28.1249 10.623 28.1249 9.84375V9.375C29.0156 9.375 29.7831 8.74805 29.9589 7.875C30.1347 7.00195 29.6777 6.12305 28.8632 5.77734L15.7382 0.152344C15.2695 -0.046875 14.7304 -0.046875 14.2617 0.152344ZM7.49995 13.125H3.74995V24.627C3.71479 24.6445 3.67963 24.668 3.64448 24.6914L0.831978 26.5664C0.146431 27.0234 -0.164116 27.8789 0.0761184 28.6699C0.316353 29.4609 1.04877 30 1.87495 30H28.1249C28.9511 30 29.6777 29.4609 29.9179 28.6699C30.1581 27.8789 29.8535 27.0234 29.1621 26.5664L26.3496 24.6914C26.3144 24.668 26.2792 24.6504 26.2441 24.627V13.125H22.4999V24.375H20.1562V13.125H16.4062V24.375H13.5937V13.125H9.8437V24.375H7.49995V13.125ZM14.9999 3.75C15.4972 3.75 15.9741 3.94754 16.3258 4.29917C16.6774 4.6508 16.8749 5.12772 16.8749 5.625C16.8749 6.12228 16.6774 6.59919 16.3258 6.95083C15.9741 7.30246 15.4972 7.5 14.9999 7.5C14.5027 7.5 14.0258 7.30246 13.6741 6.95083C13.3225 6.59919 13.1249 6.12228 13.1249 5.625C13.1249 5.12772 13.3225 4.6508 13.6741 4.29917C14.0258 3.94754 14.5027 3.75 14.9999 3.75Z" fill="#3B82F6"/>
</g>
<defs>
<clipPath id="clip0_591_6513">
<path d="M0 0H30V30H0V0Z" fill="white"/>
</clipPath>
</defs>
</svg>
