<svg width="30" height="30" viewBox="0 0 30 30" fill="none" xmlns="http://www.w3.org/2000/svg">
<g clip-path="url(#clip0_581_3155)">
<g clip-path="url(#clip1_581_3155)">
<path d="M18.75 5.625H11.25L8.47266 1.45898C8.05664 0.832031 8.50195 0 9.25195 0H20.748C21.498 0 21.9434 0.832031 21.5273 1.45898L18.75 5.625ZM11.25 7.5H18.75C18.9727 7.64648 19.2246 7.81055 19.5117 7.99219C22.834 10.1191 30 14.7012 30 24.375C30 27.4805 27.4805 30 24.375 30H5.625C2.51953 30 0 27.4805 0 24.375C0 14.7012 7.16602 10.1191 10.4883 7.99219C10.7695 7.81055 11.0273 7.64648 11.25 7.5ZM16.1719 12.6562C16.1719 12.0117 15.6445 11.4844 15 11.4844C14.3555 11.4844 13.8281 12.0117 13.8281 12.6562V13.4766C13.3828 13.5762 12.9375 13.7344 12.5273 13.9746C11.7129 14.4609 11.0098 15.3105 11.0156 16.5469C11.0215 17.7363 11.7188 18.4863 12.4629 18.9316C13.1074 19.3184 13.9102 19.5645 14.5488 19.752L14.6484 19.7812C15.3867 20.0039 15.9258 20.1797 16.2891 20.4082C16.5879 20.5957 16.6289 20.7246 16.6348 20.8887C16.6406 21.1816 16.5293 21.3574 16.2891 21.5039C15.9961 21.6855 15.5332 21.7969 15.0352 21.7793C14.3848 21.7559 13.7754 21.5508 12.9785 21.2812C12.8438 21.2344 12.7031 21.1875 12.5566 21.1406C11.9414 20.9355 11.2793 21.2695 11.0742 21.8789C10.8691 22.4883 11.2031 23.1562 11.8125 23.3613C11.9238 23.3965 12.0469 23.4375 12.1699 23.4844C12.6562 23.6543 13.2188 23.8477 13.8223 23.9766V24.8438C13.8223 25.4883 14.3496 26.0156 14.9941 26.0156C15.6387 26.0156 16.166 25.4883 16.166 24.8438V24.0352C16.6348 23.9355 17.1035 23.7715 17.5254 23.5078C18.3633 22.9863 18.9961 22.0957 18.9785 20.8711C18.9609 19.6816 18.293 18.9141 17.5371 18.4336C16.8633 18.0117 16.0195 17.7539 15.3633 17.5547L15.3223 17.543C14.5723 17.3145 14.0391 17.1504 13.6641 16.9277C13.3594 16.7461 13.3535 16.6406 13.3535 16.5352C13.3535 16.3184 13.4355 16.1543 13.7168 15.9902C14.0332 15.8027 14.5137 15.6914 14.9766 15.6973C15.5391 15.7031 16.1602 15.8262 16.8047 16.002C17.4316 16.166 18.0703 15.7969 18.2402 15.1699C18.4102 14.543 18.0352 13.9043 17.4082 13.7344C17.0273 13.6348 16.6055 13.5352 16.1719 13.459V12.6562Z" fill="#10B981"/>
</g>
</g>
<defs>
<clipPath id="clip0_581_3155">
<rect width="30" height="30" fill="white"/>
</clipPath>
<clipPath id="clip1_581_3155">
<path d="M0 0H30V30H0V0Z" fill="white"/>
</clipPath>
</defs>
</svg>
