<svg width="30" height="28" viewBox="0 0 30 28" fill="none" xmlns="http://www.w3.org/2000/svg">
<path d="M3.75 2.75C3.75 1.71289 2.91211 0.875 1.875 0.875C0.837891 0.875 0 1.71289 0 2.75V22.4375C0 25.0273 2.09766 27.125 4.6875 27.125H28.125C29.1621 27.125 30 26.2871 30 25.25C30 24.2129 29.1621 23.375 28.125 23.375H4.6875C4.17188 23.375 3.75 22.9531 3.75 22.4375V2.75ZM27.5742 7.82422C28.3066 7.0918 28.3066 5.90234 27.5742 5.16992C26.8418 4.4375 25.6523 4.4375 24.9199 5.16992L18.75 11.3457L15.3867 7.98242C14.6543 7.25 13.4648 7.25 12.7324 7.98242L6.16992 14.5449C5.4375 15.2773 5.4375 16.4668 6.16992 17.1992C6.90234 17.9316 8.0918 17.9316 8.82422 17.1992L14.0625 11.9668L17.4258 15.3301C18.1582 16.0625 19.3477 16.0625 20.0801 15.3301L27.5801 7.83008L27.5742 7.82422Z" fill="#F97316"/>
</svg>
