<svg width="50" height="52" viewBox="0 0 50 52" fill="none" xmlns="http://www.w3.org/2000/svg">
<g clip-path="url(#clip0_586_3292)">
<path d="M50 26.1667C50 24.4444 49.8333 22.6667 49.5556 21H25.5V30.8333H39.2778C38.7222 34 36.8889 36.7778 34.1667 38.5556L42.3889 44.9444C47.2222 40.4444 50 33.8889 50 26.1667Z" fill="#4280EF"/>
<path d="M25.4999 51.0556C32.3888 51.0556 38.1666 48.7778 42.3888 44.8889L34.1666 38.5556C31.8888 40.1111 28.9444 41 25.4999 41C18.8333 41 13.2222 36.5 11.1666 30.5L2.72217 37C7.0555 45.6111 15.8333 51.0556 25.4999 51.0556Z" fill="#34A353"/>
<path d="M11.1664 30.4444C10.1109 27.2778 10.1109 23.8333 11.1664 20.6666L2.72201 14.1111C-0.889106 21.3333 -0.889106 29.8333 2.72201 37L11.1664 30.4444Z" fill="#F6B704"/>
<path d="M25.4999 10.1665C29.1111 10.111 32.6666 11.4999 35.2777 13.9999L42.5555 6.66653C37.9444 2.33319 31.8333 -0.000142582 25.4999 0.055413C15.8333 0.055413 7.0555 5.49986 2.72217 14.111L11.1666 20.6665C13.2222 14.611 18.8333 10.1665 25.4999 10.1665Z" fill="#E54335"/>
</g>
<defs>
<clipPath id="clip0_586_3292">
<rect width="50" height="51.1111" fill="white"/>
</clipPath>
</defs>
</svg>
