<svg width="72" height="72" viewBox="0 0 72 72" fill="none" xmlns="http://www.w3.org/2000/svg">
<path d="M69.5318 2.04172C68.4565 2.04172 67.202 2.04172 66.1266 2.04172C58.7785 2.40016 51.7889 4.01316 45.1577 7.23915C37.0927 11.0028 30.2823 16.3795 24.9056 23.5483C21.142 28.3873 18.4536 33.764 16.4822 39.4991C16.303 39.8575 16.4822 40.0367 16.6614 40.216C18.2744 41.8289 19.8874 43.4419 21.5004 45.0549C21.6796 45.2342 21.8589 45.5926 21.8589 45.951C21.8589 46.3095 21.6796 46.6679 21.3212 46.8472C20.9627 47.0264 20.4251 47.0264 20.2459 46.6679C19.3497 45.7718 18.6329 45.0549 17.7368 44.1588C16.6614 43.0835 15.7653 42.0082 14.69 41.1121C14.3315 40.7536 14.1523 40.216 14.3315 39.6783C16.6614 32.6886 20.0666 26.2367 24.9056 20.5016C29.7446 14.5872 35.6589 9.92747 42.2901 6.52226C48.3837 3.29627 55.0149 1.32483 61.8253 0.428723C64.6929 0.070279 67.5604 -0.108943 70.4279 0.070279C71.3241 0.070279 71.5033 0.428723 71.6825 1.32483C72.0409 12.9742 69.1734 23.7276 62.9006 33.764C56.6279 43.6212 48.0252 50.9693 37.2719 55.629C35.6589 56.3459 33.8667 56.8836 32.0745 57.6005C31.5368 57.7797 31.1784 57.7797 30.8199 57.242C29.0277 55.4498 27.0563 53.4784 25.2641 51.6861C24.9056 51.3277 24.7264 50.79 25.0848 50.2524C25.4433 49.7147 26.1602 49.7147 26.6978 50.2524C28.3108 51.8654 29.9238 53.4784 31.5368 55.0914C31.8953 55.4498 32.0745 55.4498 32.4329 55.2706C40.3187 52.5823 47.3083 48.2809 53.2227 42.5458C60.2123 35.7354 64.8721 27.6704 67.5604 18.5301C68.9942 13.5119 69.7111 8.31448 69.7111 2.93783C69.7111 2.57938 69.5318 2.40016 69.5318 2.04172Z" fill="#2BB79D"/>
<path d="M59.6746 23.0107C59.6746 29.1043 54.8356 33.9432 48.7421 33.9432C42.6486 33.9432 37.8096 29.1043 37.8096 23.0107C37.8096 17.0964 42.6486 12.0782 48.5629 12.0782C54.8356 12.0782 59.6746 16.9172 59.6746 23.0107ZM57.524 23.1899C57.524 18.1717 53.5811 14.2288 48.5629 14.2288C43.5447 14.2288 39.6018 18.1717 39.6018 23.1899C39.6018 28.2081 43.5447 32.151 48.5629 32.151C53.5811 31.9718 57.524 28.0289 57.524 23.1899Z" fill="#2BB79D"/>
<path d="M32.2539 68.8914C33.5084 68.1745 34.763 67.2784 35.8383 66.3823C39.4228 63.1563 41.3942 59.2134 42.2903 54.5537C42.4695 53.8368 42.828 53.4783 43.3656 53.4783C44.0825 53.4783 44.441 54.016 44.441 54.7329C44.2617 55.629 44.0825 56.7043 43.7241 57.6004C41.7526 63.694 38.1682 68.1745 32.6123 71.2213C31.3578 71.9382 30.8201 71.5797 30.6409 70.3252C29.924 66.5615 29.2071 62.6186 28.4902 58.855C28.4902 58.4965 28.4902 58.1381 28.4902 57.9589C28.6695 57.6004 29.0279 57.4212 29.5656 57.4212C29.924 57.4212 30.2825 57.7797 30.4617 58.1381C30.6409 59.2134 30.8201 60.2888 31.1786 61.5433C31.3578 64.0524 31.8954 66.3823 32.2539 68.8914Z" fill="#2BB79D"/>
<path d="M2.68219 39.3199C3.75752 39.4991 4.83285 39.6783 5.72896 39.8576C8.23806 40.3952 10.7472 40.7537 13.077 41.2913C13.2563 41.2913 13.2563 41.2913 13.4355 41.2913C13.9732 41.4706 14.3316 42.0082 14.1524 42.5459C13.9732 43.0836 13.6147 43.442 12.8978 43.2628C11.4641 42.9043 9.85106 42.7251 8.41728 42.3667C6.0874 41.829 3.75752 41.4706 1.24841 40.9329C1.06919 40.9329 1.06919 40.9329 0.88997 40.9329C-0.00613915 40.7537 -0.185361 40.216 0.173083 39.3199C1.24841 37.3485 2.50297 35.377 4.11596 33.764C7.52117 30.1796 11.6433 28.2082 16.303 27.1328C16.4823 27.1328 16.6615 27.1328 16.6615 26.9536C17.1992 26.7744 17.7368 27.1328 17.916 27.6705C18.0953 28.2082 17.7368 28.7458 17.0199 28.925C15.9446 29.2835 14.69 29.4627 13.6147 29.8212C8.95495 31.4341 5.37051 34.3017 2.68219 38.4238C2.86141 38.9615 2.86141 39.1407 2.68219 39.3199Z" fill="#2BB79D"/>
<path d="M15.407 55.2706C15.5862 55.0914 15.7654 54.733 15.9446 54.5537C19.3499 51.1485 22.5759 47.9225 25.9811 44.5173C27.2356 43.2628 28.3109 42.1874 29.5655 40.9329C30.1032 40.3952 30.6408 40.3952 31.1785 40.7537C31.5369 41.1121 31.5369 41.829 30.9993 42.3667C27.0564 46.3095 23.1135 50.4316 18.9914 54.3745C18.4538 54.9122 17.9161 55.6291 17.1992 56.1667C16.8408 56.5252 16.4823 56.5252 16.1239 56.346C15.5862 56.1667 15.407 55.8083 15.407 55.2706Z" fill="#2BB79D"/>
<path d="M10.7472 59.9304C11.1056 60.1096 11.4641 60.2889 11.6433 60.6473C11.8225 61.0057 11.6433 61.3642 11.4641 61.7226C11.2849 61.9019 10.9264 62.2603 10.7472 62.6187C8.59654 64.7694 6.44588 67.0993 4.11599 69.25C3.75755 69.4292 3.57833 69.6084 3.21989 69.6084C2.86144 69.6084 2.503 69.4292 2.32378 69.0707C2.14456 68.5331 2.14456 68.1746 2.503 67.8162C3.93677 66.3824 5.37055 64.9486 6.80432 63.5149C7.87965 62.4395 8.77576 61.5434 9.85109 60.4681C10.2095 60.2889 10.3888 60.1096 10.7472 59.9304Z" fill="#2BB79D"/>
<path d="M9.13408 52.5822C10.0302 52.5822 10.5679 53.4784 10.2094 54.016C10.0302 54.1952 10.0302 54.3745 9.85097 54.5537C7.52109 56.8836 5.1912 59.2134 2.86132 61.5433L2.6821 61.7226C2.14443 62.081 1.60677 62.2602 1.24832 61.7226C0.889881 61.3641 0.889881 60.6472 1.24832 60.2888C3.04054 58.4966 4.83276 56.7043 6.62498 54.9121C7.34186 54.1952 7.87953 53.6576 8.59642 53.1199C8.77564 52.7615 9.13408 52.5822 9.13408 52.5822Z" fill="#2BB79D"/>
<path d="M19.1707 62.6188C19.1707 62.798 18.9914 62.9772 18.8122 63.3356C16.3031 65.8447 13.9732 68.1746 11.4641 70.6837C10.9265 71.2214 10.3888 71.2214 9.85113 70.6837C9.49269 70.3253 9.49269 69.6084 10.0304 69.25C12.5395 66.7409 14.8693 64.411 17.3784 61.9019C17.7369 61.5434 18.0953 61.3642 18.633 61.5434C18.9914 61.7226 19.1707 61.9019 19.1707 62.6188Z" fill="#2BB79D"/>
</svg>
